# This file uses centimeters as units for non-parametric coordinates.

mtllib Mesh3d.mtl
g default
v 2.206596 0.000000 0.000000
v 2.189196 0.000000 -0.276560
v 2.137271 0.000000 -0.548758
v 2.051641 -0.000000 -0.812303
v 1.933655 0.000000 -1.063036
v 1.785174 0.000000 -1.297004
v 1.608539 0.000000 -1.510519
v 1.406537 0.000000 -1.700211
v 1.182353 0.000000 -1.863090
v 0.939523 0.000000 -1.996588
v 0.681876 0.000000 -2.098597
v 0.413475 0.000000 -2.167511
v 0.138554 0.000000 -2.202242
v -0.138553 0.000000 -2.202242
v -0.413475 0.000000 -2.167511
v -0.681875 0.000000 -2.098597
v -0.939523 0.000000 -1.996588
v -1.182353 0.000000 -1.863091
v -1.406537 0.000000 -1.700212
v -1.608539 0.000000 -1.510519
v -1.785174 0.000000 -1.297005
v -1.933655 0.000000 -1.063036
v -2.051641 0.000000 -0.812302
v -2.137272 0.000000 -0.548758
v -2.189197 0.000000 -0.276560
v -2.206596 0.000000 -0.000000
v -2.189197 0.000000 0.276560
v -2.137272 0.000000 0.548758
v -2.051642 0.000000 0.812302
v 1.933656 0.000000 1.063036
v 2.051642 0.000000 0.812303
v 2.137273 0.000000 0.548758
v 2.189198 0.000000 0.276560
v 11.032978 0.000000 0.000000
v 10.945980 0.000000 -1.382799
v 10.686357 0.000000 -2.743790
v 10.258204 0.000000 -4.061510
v 9.668273 0.000000 -5.315178
v 8.925868 0.000000 -6.485022
v 8.042696 0.000000 -7.552594
v 7.032686 0.000000 -8.501056
v 5.911767 0.000000 -9.315452
v 4.697615 0.000000 -9.982938
v 3.409380 0.000000 -10.492987
v 2.067375 0.000000 -10.837556
v 0.692768 0.000000 -11.011210
v -0.692766 0.000000 -11.011210
v -2.067373 0.000000 -10.837558
v -3.409378 0.000000 -10.492989
v -4.697614 0.000000 -9.982941
v -5.911767 0.000000 -9.315456
v -7.032687 0.000000 -8.501060
v -8.042698 0.000000 -7.552597
v -8.925870 0.000000 -6.485026
v -9.668277 0.000000 -5.315181
v -10.258209 0.000000 -4.061513
v -10.686363 0.000000 -2.743793
v -10.945986 0.000000 -1.382801
v -11.032985 0.000000 -0.000001
v -10.945987 0.000000 1.382799
v -10.686364 0.000000 2.743791
v -10.258210 0.000000 4.061512
v 9.668281 0.000000 5.315183
v 10.258214 0.000000 4.061515
v 10.686368 0.000000 2.743793
v 10.945991 0.000000 1.382801
v 6.619787 0.414278 0.000000
v 6.567595 0.414278 0.829680
v 6.411820 0.414278 1.646276
v 6.154928 0.414278 2.436909
v 5.800969 0.414278 3.189110
v -6.154926 0.414278 2.436907
v -6.411818 0.414278 1.646274
v -6.567592 0.414278 0.829679
v -6.619790 0.414278 -0.000001
v -6.567592 0.414278 -0.829680
v -6.411817 0.414278 -1.646275
v -6.154925 0.414278 -2.436908
v -5.800966 0.414278 -3.189108
v -5.355522 0.414278 -3.891015
v -4.825618 0.414278 -4.531558
v -4.219612 0.414278 -5.100636
v -3.547060 0.414278 -5.589273
v -2.818568 0.414278 -5.989765
v -2.045627 0.414278 -6.295793
v -1.240424 0.414278 -6.502534
v -0.415659 0.414278 -6.606726
v 0.415661 0.414278 -6.606726
v 1.240425 0.414278 -6.502533
v 2.045628 0.414278 -6.295793
v 2.818569 0.414278 -5.989763
v 3.547060 0.414278 -5.589272
v 4.219612 0.414278 -5.100634
v 4.825618 0.414278 -4.531556
v 5.355521 0.414278 -3.891013
v 5.800964 0.414278 -3.189107
v 6.154923 0.414278 -2.436906
v 6.411814 0.414278 -1.646274
v 6.567588 0.414278 -0.829679
v 6.619787 -0.414278 0.000000
v 6.567588 -0.414278 -0.829679
v 6.411814 -0.414278 -1.646274
v 6.154923 -0.414278 -2.436906
v 5.800964 -0.414278 -3.189107
v 5.355521 -0.414278 -3.891013
v 4.825618 -0.414278 -4.531556
v 4.219612 -0.414278 -5.100634
v 3.547060 -0.414278 -5.589272
v 2.818569 -0.414278 -5.989763
v 2.045628 -0.414278 -6.295793
v 1.240425 -0.414278 -6.502533
v 0.415661 -0.414278 -6.606726
v -0.415659 -0.414278 -6.606726
v -1.240424 -0.414278 -6.502534
v -2.045627 -0.414278 -6.295793
v -2.818568 -0.414278 -5.989765
v -3.547060 -0.414278 -5.589273
v -4.219612 -0.414278 -5.100636
v -4.825618 -0.414278 -4.531558
v -5.355522 -0.414278 -3.891015
v -5.800966 -0.414278 -3.189108
v -6.154925 -0.414278 -2.436908
v -6.411817 -0.414278 -1.646275
v -6.567592 -0.414278 -0.829680
v -6.619790 -0.414278 -0.000001
v -6.567592 -0.414278 0.829679
v -6.411818 -0.414278 1.646274
v -6.154926 -0.414278 2.436907
v 5.800969 -0.414278 3.189110
v 6.154928 -0.414278 2.436909
v 6.411820 -0.414278 1.646276
v 6.567595 -0.414278 0.829680
vt 0.874938 0.002649
vt 0.843665 0.002649
vt 0.812519 0.002649
vt 0.781374 0.002649
vt 0.750228 0.002649
vt 0.719082 0.002649
vt 0.687937 0.002649
vt 0.656791 0.002649
vt 0.625645 0.002649
vt 0.594499 0.002649
vt 0.563354 0.002649
vt 0.532208 0.002649
vt 0.501062 0.002649
vt 0.469917 0.002649
vt 0.438771 0.002649
vt 0.407625 0.002649
vt 0.376479 0.002649
vt 0.345334 0.002649
vt 0.314188 0.002649
vt 0.283042 0.002649
vt 0.251896 0.002649
vt 0.220751 0.002649
vt 0.189605 0.002649
vt 0.158459 0.002649
vt 0.127257 0.002649
vt 0.096111 0.002649
vt 0.064966 0.002649
vt 0.033820 0.002649
vt 0.002674 0.002649
vt 0.999704 0.002649
vt 0.968558 0.002649
vt 0.937413 0.002649
vt 0.906267 0.002649
vt 0.874938 0.998882
vt 0.843665 0.998882
vt 0.812519 0.998882
vt 0.781374 0.998882
vt 0.750228 0.998882
vt 0.719082 0.998882
vt 0.687937 0.998882
vt 0.656791 0.998882
vt 0.625645 0.998882
vt 0.594499 0.998882
vt 0.563354 0.998882
vt 0.532208 0.998882
vt 0.501062 0.998882
vt 0.469917 0.998882
vt 0.438771 0.998882
vt 0.407625 0.998882
vt 0.376479 0.998882
vt 0.345334 0.998882
vt 0.314188 0.998882
vt 0.283042 0.998882
vt 0.251896 0.998882
vt 0.220751 0.998882
vt 0.189605 0.998882
vt 0.158459 0.998882
vt 0.127257 0.998882
vt 0.096111 0.998882
vt 0.064966 0.998882
vt 0.033820 0.998882
vt 0.999704 0.998882
vt 0.999704 0.998882
vt 0.968558 0.998882
vt 0.937413 0.998882
vt 0.906267 0.998882
vt 0.127257 0.002649
vt 0.158459 0.002649
vt 0.189605 0.002649
vt 0.220751 0.002649
vt 0.251896 0.002649
vt 0.283042 0.002649
vt 0.314188 0.002649
vt 0.345334 0.002649
vt 0.376479 0.002649
vt 0.407625 0.002649
vt 0.438771 0.002649
vt 0.469917 0.002649
vt 0.501062 0.002649
vt 0.532208 0.002649
vt 0.563354 0.002649
vt 0.594499 0.002649
vt 0.625645 0.002649
vt 0.656791 0.002649
vt 0.687937 0.002649
vt 0.719082 0.002649
vt 0.750228 0.002649
vt 0.781374 0.002649
vt 0.812519 0.002649
vt 0.843665 0.002649
vt 0.874938 0.002649
vt 0.906267 0.002649
vt 0.937413 0.002649
vt 0.968558 0.002649
vt 0.999704 0.002649
vt 0.002674 0.002649
vt 0.033820 0.002649
vt 0.064966 0.002649
vt 0.096111 0.002649
vt 0.874938 0.501363
vt 0.906267 0.501363
vt 0.937413 0.501363
vt 0.968558 0.501363
vt 0.999704 0.501363
vt 0.002674 0.501363
vt 0.033820 0.501363
vt 0.064966 0.501363
vt 0.096111 0.501363
vt 0.127257 0.501363
vt 0.158459 0.501363
vt 0.189605 0.501363
vt 0.220751 0.501363
vt 0.251896 0.501363
vt 0.283042 0.501363
vt 0.314188 0.501363
vt 0.345334 0.501363
vt 0.376479 0.501363
vt 0.407625 0.501363
vt 0.438771 0.501363
vt 0.469917 0.501363
vt 0.501062 0.501363
vt 0.532208 0.501363
vt 0.563354 0.501363
vt 0.594499 0.501363
vt 0.625645 0.501363
vt 0.656791 0.501363
vt 0.687937 0.501363
vt 0.719082 0.501363
vt 0.750228 0.501363
vt 0.781374 0.501363
vt 0.812519 0.501363
vt 0.843665 0.501363
vt 0.127257 0.501363
vt 0.158459 0.501363
vt 0.189605 0.501363
vt 0.220751 0.501363
vt 0.251896 0.501363
vt 0.283042 0.501363
vt 0.314188 0.501363
vt 0.345334 0.501363
vt 0.376479 0.501363
vt 0.407625 0.501363
vt 0.438771 0.501363
vt 0.469917 0.501363
vt 0.501062 0.501363
vt 0.532208 0.501363
vt 0.563354 0.501363
vt 0.594499 0.501363
vt 0.625645 0.501363
vt 0.656791 0.501363
vt 0.687937 0.501363
vt 0.719082 0.501363
vt 0.750228 0.501363
vt 0.781374 0.501363
vt 0.812519 0.501363
vt 0.843665 0.501363
vt 0.874938 0.501363
vt 0.906267 0.501363
vt 0.937413 0.501363
vt 0.968558 0.501363
vt 0.999704 0.501363
vt 0.002674 0.501363
vt 0.033820 0.501363
vt 0.064966 0.501363
vt 0.096111 0.501363
vt 0.096111 0.998882
vt 0.127257 0.998882
vt 0.064966 0.998882
vt 0.033820 0.998882
vt 0.002674 0.998882
vt 0.968558 0.998882
vt 0.002674 0.998882
vt 0.937413 0.998882
vt 0.906267 0.998882
vt 0.874938 0.998882
vt 0.843665 0.998882
vt 0.812519 0.998882
vt 0.781374 0.998882
vt 0.750228 0.998882
vt 0.719082 0.998882
vt 0.687937 0.998882
vt 0.656791 0.998882
vt 0.625645 0.998882
vt 0.594499 0.998882
vt 0.563354 0.998882
vt 0.532208 0.998882
vt 0.501062 0.998882
vt 0.469917 0.998882
vt 0.438771 0.998882
vt 0.407625 0.998882
vt 0.376479 0.998882
vt 0.345334 0.998882
vt 0.314188 0.998882
vt 0.283042 0.998882
vt 0.251896 0.998882
vt 0.220751 0.998882
vt 0.189605 0.998882
vt 0.158459 0.998882
vn 0.034200 0.999406 -0.004321
vn 0.034472 0.999406 -0.000000
vn 0.093462 0.995623 -0.000000
vn 0.092725 0.995623 -0.011714
vn 0.033389 0.999406 -0.008573
vn 0.090526 0.995623 -0.023243
vn 0.032051 0.999406 -0.012690
vn 0.086899 0.995623 -0.034406
vn 0.030208 0.999406 -0.016607
vn 0.081901 0.995623 -0.045026
vn 0.027889 0.999406 -0.020262
vn 0.075612 0.995623 -0.054935
vn 0.025129 0.999406 -0.023598
vn 0.068131 0.995623 -0.063979
vn 0.021973 0.999406 -0.026561
vn 0.059575 0.995623 -0.072014
vn 0.018471 0.999406 -0.029106
vn 0.050079 0.995623 -0.078912
vn 0.014678 0.999406 -0.031191
vn 0.039794 0.995623 -0.084567
vn 0.010652 0.999406 -0.032785
vn 0.028881 0.995623 -0.088887
vn 0.006459 0.999406 -0.033861
vn 0.017513 0.995623 -0.091806
vn 0.002165 0.999406 -0.034404
vn 0.005869 0.995623 -0.093277
vn -0.002165 0.999406 -0.034404
vn -0.005869 0.995623 -0.093277
vn -0.006459 0.999406 -0.033861
vn -0.017513 0.995623 -0.091806
vn -0.010652 0.999406 -0.032785
vn -0.028881 0.995623 -0.088887
vn -0.014677 0.999406 -0.031191
vn -0.039794 0.995623 -0.084567
vn -0.018471 0.999406 -0.029106
vn -0.050079 0.995623 -0.078912
vn -0.021973 0.999406 -0.026561
vn -0.059575 0.995623 -0.072014
vn -0.025129 0.999406 -0.023598
vn -0.068131 0.995623 -0.063979
vn -0.027888 0.999406 -0.020262
vn -0.075612 0.995623 -0.054935
vn -0.030208 0.999406 -0.016607
vn -0.081901 0.995623 -0.045026
vn -0.032051 0.999406 -0.012690
vn -0.086899 0.995623 -0.034406
vn -0.033389 0.999406 -0.008573
vn -0.090525 0.995623 -0.023243
vn -0.034200 0.999406 -0.004321
vn -0.092725 0.995623 -0.011714
vn -0.034472 0.999406 0.000000
vn -0.093462 0.995623 -0.000000
vn -0.034200 0.999406 0.004320
vn -0.092725 0.995623 0.011714
vn -0.033389 0.999406 0.008573
vn -0.090525 0.995623 0.023243
vn -0.032850 0.999403 0.010673
vn -0.089062 0.995606 0.028938
vn 0.032051 0.999406 0.012690
vn 0.031253 0.999403 0.014706
vn 0.084732 0.995606 0.039872
vn 0.086899 0.995623 0.034406
vn 0.033389 0.999406 0.008573
vn 0.090525 0.995623 0.023243
vn 0.034200 0.999406 0.004320
vn 0.092725 0.995623 0.011714
vn 0.092725 -0.995623 -0.011714
vn 0.093462 -0.995623 -0.000000
vn 0.034472 -0.999406 -0.000000
vn 0.034200 -0.999406 -0.004321
vn 0.090526 -0.995623 -0.023243
vn 0.033389 -0.999406 -0.008573
vn 0.086899 -0.995623 -0.034406
vn 0.032051 -0.999406 -0.012690
vn 0.081901 -0.995623 -0.045026
vn 0.030208 -0.999406 -0.016607
vn 0.075612 -0.995623 -0.054935
vn 0.027889 -0.999406 -0.020262
vn 0.068131 -0.995623 -0.063979
vn 0.025129 -0.999406 -0.023598
vn 0.059575 -0.995623 -0.072014
vn 0.021973 -0.999406 -0.026561
vn 0.050079 -0.995623 -0.078912
vn 0.018471 -0.999406 -0.029106
vn 0.039794 -0.995623 -0.084567
vn 0.014678 -0.999406 -0.031191
vn 0.028881 -0.995623 -0.088887
vn 0.010652 -0.999406 -0.032785
vn 0.017513 -0.995623 -0.091806
vn 0.006459 -0.999406 -0.033861
vn 0.005869 -0.995623 -0.093277
vn 0.002165 -0.999406 -0.034404
vn -0.005869 -0.995623 -0.093277
vn -0.002165 -0.999406 -0.034404
vn -0.017513 -0.995623 -0.091806
vn -0.006459 -0.999406 -0.033861
vn -0.028881 -0.995623 -0.088887
vn -0.010652 -0.999406 -0.032785
vn -0.039794 -0.995623 -0.084567
vn -0.014677 -0.999406 -0.031191
vn -0.050079 -0.995623 -0.078912
vn -0.018471 -0.999406 -0.029106
vn -0.059575 -0.995623 -0.072014
vn -0.021973 -0.999406 -0.026561
vn -0.068131 -0.995623 -0.063979
vn -0.025129 -0.999406 -0.023598
vn -0.075612 -0.995623 -0.054935
vn -0.027888 -0.999406 -0.020262
vn -0.081901 -0.995623 -0.045026
vn -0.030208 -0.999406 -0.016607
vn -0.086899 -0.995623 -0.034406
vn -0.032051 -0.999406 -0.012690
vn -0.090525 -0.995623 -0.023243
vn -0.033389 -0.999406 -0.008573
vn -0.092725 -0.995623 -0.011714
vn -0.034200 -0.999406 -0.004321
vn -0.093462 -0.995623 -0.000000
vn -0.034472 -0.999406 -0.000000
vn -0.092725 -0.995623 0.011714
vn -0.034200 -0.999406 0.004320
vn -0.090525 -0.995623 0.023243
vn -0.033389 -0.999406 0.008573
vn -0.089062 -0.995606 0.028938
vn -0.032850 -0.999403 0.010673
vn 0.086899 -0.995623 0.034406
vn 0.084732 -0.995606 0.039872
vn 0.031253 -0.999403 0.014706
vn 0.032051 -0.999406 0.012690
vn 0.090525 -0.995623 0.023243
vn 0.033389 -0.999406 0.008573
vn 0.092725 -0.995623 0.011714
vn 0.034200 -0.999406 0.004320
vn -0.093462 0.995623 0.000000
vn -0.092725 0.995623 -0.011714
vn -0.090525 0.995623 -0.023243
vn -0.086899 0.995623 -0.034406
vn -0.084732 0.995606 -0.039872
vn 0.089062 0.995606 -0.028938
vn 0.090526 0.995623 -0.023243
vn 0.092725 0.995623 -0.011714
vn 0.093462 0.995623 0.000000
vn 0.092725 0.995623 0.011714
vn 0.090525 0.995623 0.023243
vn 0.086899 0.995623 0.034406
vn 0.081901 0.995623 0.045026
vn 0.075612 0.995623 0.054935
vn 0.068131 0.995623 0.063979
vn 0.059575 0.995623 0.072014
vn 0.050079 0.995623 0.078912
vn 0.039794 0.995623 0.084567
vn 0.028881 0.995623 0.088887
vn 0.017513 0.995623 0.091806
vn 0.005868 0.995623 0.093277
vn -0.005869 0.995623 0.093277
vn -0.017513 0.995623 0.091806
vn -0.028881 0.995623 0.088887
vn -0.039794 0.995623 0.084567
vn -0.050079 0.995623 0.078912
vn -0.059575 0.995623 0.072014
vn -0.068131 0.995623 0.063979
vn -0.075612 0.995623 0.054935
vn -0.081901 0.995623 0.045026
vn -0.086899 0.995623 0.034406
vn -0.090526 0.995623 0.023243
vn -0.092725 0.995623 0.011714
vn -0.093462 -0.995623 0.000000
vn -0.092725 -0.995623 0.011714
vn -0.090526 -0.995623 0.023243
vn -0.086899 -0.995623 0.034406
vn -0.081901 -0.995623 0.045026
vn -0.075612 -0.995623 0.054935
vn -0.068131 -0.995623 0.063979
vn -0.059575 -0.995623 0.072014
vn -0.050079 -0.995623 0.078912
vn -0.039794 -0.995623 0.084567
vn -0.028881 -0.995623 0.088887
vn -0.017513 -0.995623 0.091806
vn -0.005869 -0.995623 0.093277
vn 0.005868 -0.995623 0.093277
vn 0.017513 -0.995623 0.091806
vn 0.028881 -0.995623 0.088887
vn 0.039794 -0.995623 0.084567
vn 0.050079 -0.995623 0.078912
vn 0.059575 -0.995623 0.072014
vn 0.068131 -0.995623 0.063979
vn 0.075612 -0.995623 0.054935
vn 0.081901 -0.995623 0.045026
vn 0.086899 -0.995623 0.034406
vn 0.090525 -0.995623 0.023243
vn 0.092725 -0.995623 0.011714
vn 0.093462 -0.995623 0.000000
vn 0.092725 -0.995623 -0.011714
vn 0.090526 -0.995623 -0.023243
vn 0.089062 -0.995606 -0.028938
vn -0.084732 -0.995606 -0.039872
vn -0.086899 -0.995623 -0.034406
vn -0.090525 -0.995623 -0.023243
vn -0.092725 -0.995623 -0.011714
s 1
g pPipe1
usemtl initialShadingGroup
f 99/132/1 67/100/2 34/34/3 35/35/4
f 98/131/5 99/132/1 35/35/4 36/36/6
f 97/130/7 98/131/5 36/36/6 37/37/8
f 96/129/9 97/130/7 37/37/8 38/38/10
f 95/128/11 96/129/9 38/38/10 39/39/12
f 94/127/13 95/128/11 39/39/12 40/40/14
f 93/126/15 94/127/13 40/40/14 41/41/16
f 92/125/17 93/126/15 41/41/16 42/42/18
f 91/124/19 92/125/17 42/42/18 43/43/20
f 90/123/21 91/124/19 43/43/20 44/44/22
f 89/122/23 90/123/21 44/44/22 45/45/24
f 88/121/25 89/122/23 45/45/24 46/46/26
f 87/120/27 88/121/25 46/46/26 47/47/28
f 86/119/29 87/120/27 47/47/28 48/48/30
f 85/118/31 86/119/29 48/48/30 49/49/32
f 84/117/33 85/118/31 49/49/32 50/50/34
f 83/116/35 84/117/33 50/50/34 51/51/36
f 82/115/37 83/116/35 51/51/36 52/52/38
f 81/114/39 82/115/37 52/52/38 53/53/40
f 80/113/41 81/114/39 53/53/40 54/54/42
f 79/112/43 80/113/41 54/54/42 55/55/44
f 78/111/45 79/112/43 55/55/44 56/56/46
f 77/110/47 78/111/45 56/56/46 57/57/48
f 76/109/49 77/110/47 57/57/48 58/58/50
f 75/108/51 76/109/49 58/58/50 59/59/52
f 74/107/53 75/108/51 59/59/52 60/60/54
f 73/106/55 74/107/53 60/60/54 61/61/56
f 72/105/57 73/106/55 61/61/56 62/172/58
f 70/103/59 71/104/60 63/63/61 64/64/62
f 69/102/63 70/103/59 64/64/62 65/65/64
f 68/101/65 69/102/63 65/65/64 66/66/66
f 67/100/2 68/101/65 66/66/66 34/34/3
s 3
f 35/198/67 34/167/68 100/133/69 101/134/70
f 36/197/71 35/198/67 101/134/70 102/135/72
f 37/196/73 36/197/71 102/135/72 103/136/74
f 38/195/75 37/196/73 103/136/74 104/137/76
f 39/194/77 38/195/75 104/137/76 105/138/78
f 40/193/79 39/194/77 105/138/78 106/139/80
f 41/192/81 40/193/79 106/139/80 107/140/82
f 42/191/83 41/192/81 107/140/82 108/141/84
f 43/190/85 42/191/83 108/141/84 109/142/86
f 44/189/87 43/190/85 109/142/86 110/143/88
f 45/188/89 44/189/87 110/143/88 111/144/90
f 46/187/91 45/188/89 111/144/90 112/145/92
f 47/186/93 46/187/91 112/145/92 113/146/94
f 48/185/95 47/186/93 113/146/94 114/147/96
f 49/184/97 48/185/95 114/147/96 115/148/98
f 50/183/99 49/184/97 115/148/98 116/149/100
f 51/182/101 50/183/99 116/149/100 117/150/102
f 52/181/103 51/182/101 117/150/102 118/151/104
f 53/180/105 52/181/103 118/151/104 119/152/106
f 54/179/107 53/180/105 119/152/106 120/153/108
f 55/178/109 54/179/107 120/153/108 121/154/110
f 56/177/111 55/178/109 121/154/110 122/155/112
f 57/176/113 56/177/111 122/155/112 123/156/114
f 58/175/115 57/176/113 123/156/114 124/157/116
f 59/174/117 58/175/115 124/157/116 125/158/118
f 60/173/119 59/174/117 125/158/118 126/159/120
f 61/171/121 60/173/119 126/159/120 127/160/122
f 62/62/123 61/171/121 127/160/122 128/161/124
f 64/169/125 63/170/126 129/162/127 130/163/128
f 65/168/129 64/169/125 130/163/128 131/164/130
f 66/166/131 65/168/129 131/164/130 132/165/132
f 34/167/68 66/166/131 132/165/132 100/133/69
s 1
f 1/1/133 33/33/134 68/101/65 67/100/2
f 33/33/134 32/32/135 69/102/63 68/101/65
f 32/32/135 31/31/136 70/103/59 69/102/63
f 31/31/136 30/30/137 71/104/60 70/103/59
f 29/29/138 28/28/139 73/106/55 72/105/57
f 28/28/139 27/27/140 74/107/53 73/106/55
f 27/27/140 26/26/141 75/108/51 74/107/53
f 26/26/141 25/25/142 76/109/49 75/108/51
f 25/25/142 24/24/143 77/110/47 76/109/49
f 24/24/143 23/23/144 78/111/45 77/110/47
f 23/23/144 22/22/145 79/112/43 78/111/45
f 22/22/145 21/21/146 80/113/41 79/112/43
f 21/21/146 20/20/147 81/114/39 80/113/41
f 20/20/147 19/19/148 82/115/37 81/114/39
f 19/19/148 18/18/149 83/116/35 82/115/37
f 18/18/149 17/17/150 84/117/33 83/116/35
f 17/17/150 16/16/151 85/118/31 84/117/33
f 16/16/151 15/15/152 86/119/29 85/118/31
f 15/15/152 14/14/153 87/120/27 86/119/29
f 14/14/153 13/13/154 88/121/25 87/120/27
f 13/13/154 12/12/155 89/122/23 88/121/25
f 12/12/155 11/11/156 90/123/21 89/122/23
f 11/11/156 10/10/157 91/124/19 90/123/21
f 10/10/157 9/9/158 92/125/17 91/124/19
f 9/9/158 8/8/159 93/126/15 92/125/17
f 8/8/159 7/7/160 94/127/13 93/126/15
f 7/7/160 6/6/161 95/128/11 94/127/13
f 6/6/161 5/5/162 96/129/9 95/128/11
f 5/5/162 4/4/163 97/130/7 96/129/9
f 4/4/163 3/3/164 98/131/5 97/130/7
f 3/3/164 2/2/165 99/132/1 98/131/5
f 2/2/165 1/1/133 67/100/2 99/132/1
s 3
f 101/134/70 100/133/69 1/67/166 2/68/167
f 102/135/72 101/134/70 2/68/167 3/69/168
f 103/136/74 102/135/72 3/69/168 4/70/169
f 104/137/76 103/136/74 4/70/169 5/71/170
f 105/138/78 104/137/76 5/71/170 6/72/171
f 106/139/80 105/138/78 6/72/171 7/73/172
f 107/140/82 106/139/80 7/73/172 8/74/173
f 108/141/84 107/140/82 8/74/173 9/75/174
f 109/142/86 108/141/84 9/75/174 10/76/175
f 110/143/88 109/142/86 10/76/175 11/77/176
f 111/144/90 110/143/88 11/77/176 12/78/177
f 112/145/92 111/144/90 12/78/177 13/79/178
f 113/146/94 112/145/92 13/79/178 14/80/179
f 114/147/96 113/146/94 14/80/179 15/81/180
f 115/148/98 114/147/96 15/81/180 16/82/181
f 116/149/100 115/148/98 16/82/181 17/83/182
f 117/150/102 116/149/100 17/83/182 18/84/183
f 118/151/104 117/150/102 18/84/183 19/85/184
f 119/152/106 118/151/104 19/85/184 20/86/185
f 120/153/108 119/152/106 20/86/185 21/87/186
f 121/154/110 120/153/108 21/87/186 22/88/187
f 122/155/112 121/154/110 22/88/187 23/89/188
f 123/156/114 122/155/112 23/89/188 24/90/189
f 124/157/116 123/156/114 24/90/189 25/91/190
f 125/158/118 124/157/116 25/91/190 26/92/191
f 126/159/120 125/158/118 26/92/191 27/93/192
f 127/160/122 126/159/120 27/93/192 28/94/193
f 128/161/124 127/160/122 28/94/193 29/95/194
f 130/163/128 129/162/127 30/96/195 31/97/196
f 131/164/130 130/163/128 31/97/196 32/98/197
f 132/165/132 131/164/130 32/98/197 33/99/198
f 100/133/69 132/165/132 33/99/198 1/67/166
